# xmcd
#
# Track frame offsets:
#	150
#	10632
#	20358
#	33008
#	42093
#	53584
#	64076
#	75540
#	86191
#	96010
#	105331
#	116435
#	127271
#	135536
#	145353
#	157006
#	167663
#	177627
#	188405
#	197513
#	207344
#	218839
#	228448
#	238079
#	246227
#	257074
#
# Disc length: 3565 seconds
#
# Revision: 1
# Processed by: cddbd v1.5.1PL0 Copyright (c) Steve Scherf et al.
# Submitted via: audiograbber 1.83.01
#
DISCID=5d0deb1a
DTITLE=Various Artist - Jump and Shout!
DYEAR=1900
DGENRE=
TTITLE0=Jesse James - I'm All Right
TTITLE1=Amos Milburn Jr - Gloria
TTITLE2=Eddie Kirk - The Grunt
TTITLE3=Larry Bright - Way Down Home
TTITLE4=Skip Manning - Ham and Eggs
TTITLE5=Carl Lester and The Showstoppers - When You See Me Hurt
TTITLE6=Louis Johnson - Please Look Out
TTITLE7=Henry Strogin - Misery
TTITLE8=Louis 'Blues Boy' Jones - Someway, Somewhere
TTITLE9=Ruby Lee - I'm Gonna Put a Watch on You
TTITLE10=T.B. and The Germs - Jump and Shout Pt 1
TTITLE11=Jim Jackson - Some Love With Soul
TTITLE12=Baby Jean - If You Wanna
TTITLE13=Ideals - Go Get a Wig
TTITLE14=Joe Johnson - Rattlesnake, Baby, Rattlesnake
TTITLE15=Georgia Hughley and The Cama Rockers - What Did I Do
TTITLE16=Sherman Evans w Chris Ortiz and The Flames - The Craze
TTITLE17=Danny Ware - The Zombie Stomp
TTITLE18=Ramona Parks - Soul Mate
TTITLE19=Billy Watkins - I'm Tired
TTITLE20=Willie White - 99 Beef Steaks
TTITLE21=Larry Birdsong - Little School Girl
TTITLE22=Ty Tyrell - The Scratch Pt 1
TTITLE23=Ty Tyrell - The Scratch Pt 2
TTITLE24=Carrie Grant and The Grandeurs - Mish Mash
TTITLE25=O.V. Wright - Monkey Dog
EXTD=
EXTT0=
EXTT1=
EXTT2=
EXTT3=
EXTT4=
EXTT5=
EXTT6=
EXTT7=
EXTT8=
EXTT9=
EXTT10=
EXTT11=
EXTT12=
EXTT13=
EXTT14=
EXTT15=
EXTT16=
EXTT17=
EXTT18=
EXTT19=
EXTT20=
EXTT21=
EXTT22=
EXTT23=
EXTT24=
EXTT25=
PLAYORDER=
